<svg width="190" height="29" fill="none" xmlns="http://www.w3.org/2000/svg"><path d="M7.38 8.834H.022v2.025l2.778.687v13.849l-2.778.686v2.025h10.135v-2.025l-2.777-.686V8.834ZM5.072 5.709c.837 0 1.483-.237 1.936-.71.453-.474.68-1.098.68-1.877 0-.777-.233-1.407-.697-1.894C6.526.743 5.886.5 5.072.5c-.814 0-1.447.243-1.9.728-.453.487-.68 1.117-.68 1.894 0 .778.22 1.403.662 1.877.442.473 1.081.71 1.918.71Zm24.421 12.016a11.514 11.514 0 0 0-1.335-1.7c.841-.193 1.532-.446 2.073-.76.51-.291.997-.617 1.461-.976a7.08 7.08 0 0 0 2.002-2.443c.493-.976.74-1.97.74-2.984 0-1.012-.253-2.012-.757-3.002a6.71 6.71 0 0 0-2.057-2.423 7.148 7.148 0 0 0-2.344-1.05c-.865-.216-1.876-.324-3.03-.324h-13.49V4.16l3.036.76v20.327l-3.036.76v2.098h11.146V26.01l-3.427-.76v-8.536h3.463l4.725 9.296v2.097h8.512V26.01l-3.21-.687-4.472-7.597Zm-4.942-3.653h-4.076v-9.37h3.932c1.466 0 2.597.315 3.39.942.481.41.874.915 1.155 1.483.288.579.432 1.23.432 1.953 0 .797-.138 1.538-.414 2.224-.277.688-.656 1.237-1.137 1.646-.866.748-1.96 1.122-3.282 1.122Zm33.66-9.306a9.373 9.373 0 0 0-3.806-2.332c-1.455-.47-3.156-.705-5.103-.705-2.045 0-3.77.252-5.176.76A9.092 9.092 0 0 0 40.5 4.874c-1.154 1.23-2.045 2.761-2.67 4.592-.625 1.832-.937 3.808-.937 5.93 0 2.121.313 4.056.938 5.804.625 1.747 1.466 3.163 2.524 4.248.986 1.012 2.194 1.772 3.625 2.278 1.43.506 3.168.759 5.213.759 2.043 0 3.78-.253 5.211-.759a9.352 9.352 0 0 0 3.698-2.386c1.25-1.302 2.164-2.875 2.74-4.72a19.5 19.5 0 0 0 .866-5.803 18.774 18.774 0 0 0-.812-5.514c-.54-1.772-1.436-3.283-2.686-4.538ZM55.974 20.26c-.336 1.362-.817 2.465-1.442 3.309-1.154 1.59-2.862 2.386-5.122 2.386-1.275 0-2.34-.229-3.192-.687-.855-.457-1.57-1.133-2.146-2.024-.601-.917-1.077-2.098-1.425-3.544-.349-1.447-.523-3.11-.523-4.99 0-3.617.673-6.316 2.02-8.1A5.872 5.872 0 0 1 46.2 4.858c.817-.422 1.803-.633 2.957-.633 1.13 0 2.146.217 3.048.65.901.434 1.665 1.11 2.29 2.026.625.915 1.112 2.073 1.461 3.471.348 1.398.523 3.05.523 4.954 0 1.928-.168 3.573-.505 4.935Zm24.076 5.133H68.544L83.513 4.268V2.063H64.07v8.21h2.958l1.154-5.497h9.739L62.953 25.9v2.206h21.39v-8.609h-3.139l-1.154 5.896ZM103.6 4.16l3.03.76v8.5H95.807v-8.5l3.043-.76V2.063H88.101V4.16l3.03.76v20.328l-3.03.76v2.097H98.85V26.01l-3.043-.76v-9.187h10.824v9.187l-3.03.76v2.097h10.748V26.01l-3.031-.76V4.92l3.031-.76V2.064h-10.748V4.16Zm31.602 21.233h-8.729V4.92l3.752-.76V2.064h-11.831V4.16l3.39.76v20.328l-3.39.76v2.097h21.1v-8.97h-3.066l-1.226 6.258ZM157.321 1.71h-4.436l-8.441 23.538-2.957.76v2.097h9.522V26.01l-2.994-.76 1.875-5.604h8.8l1.841 5.605-2.958.76v2.096h11.001V26.01l-2.885-.76-8.368-23.538Zm-6.529 15.294 3.535-10.522h.143l3.356 10.522h-7.034Zm37.797 1.804c-.289-.7-.752-1.362-1.39-1.989-.637-.627-1.478-1.241-2.523-1.844-1.047-.603-2.328-1.254-3.843-1.953a94.135 94.135 0 0 1-2.543-1.193c-.685-.337-1.239-.681-1.659-1.03-.421-.35-.721-.742-.901-1.175-.18-.435-.271-.964-.271-1.592 0-2.578 1.359-3.87 4.076-3.87 1.755 0 3.054.543 3.896 1.629.841 1.085 1.262 2.76 1.262 5.025h3.139v-8.75h-3.102l-.289 1.626c-1.492-1.35-3.427-2.024-5.808-2.024-2.404 0-4.322.638-5.753 1.917-1.43 1.277-2.146 3.085-2.146 5.423 0 1.061.156 1.97.469 2.73.314.762.78 1.45 1.371 2.024.6.592 1.34 1.121 2.219 1.592.877.47 1.88.935 3.012 1.392.96.41 1.838.795 2.631 1.157.794.362 1.48.754 2.056 1.176.577.421 1.023.898 1.335 1.428.312.531.469 1.17.469 1.916 0 1.23-.409 2.128-1.227 2.695-.817.566-1.911.85-3.281.85-.866 0-1.642-.116-2.327-.344a4.323 4.323 0 0 1-1.786-1.14c-.505-.53-.907-1.217-1.208-2.061-.301-.843-.487-1.867-.559-3.073h-3.282v8.75h3.102l.398-2.096c.745.868 1.592 1.5 2.543 1.899.949.396 2.109.596 3.48.596 1.227 0 2.381-.151 3.463-.452 1.081-.3 2.025-.759 2.831-1.374a6.502 6.502 0 0 0 1.894-2.296c.456-.916.685-1.976.685-3.182 0-.892-.145-1.689-.433-2.387Z" fill="#fff"/></svg>